<svg width="360" height="100" viewBox="0 0 360 100" fill="none" xmlns="http://www.w3.org/2000/svg">
<rect width="360" height="100" fill="white"/>
<path fill-rule="evenodd" clip-rule="evenodd" d="M221.225 50.9214C222.894 50.4555 224.067 49.3044 224.067 47.3914V47.3564C224.067 46.3368 223.722 45.4711 223.081 44.8399C222.314 44.0855 221.141 43.6667 219.644 43.6667H214.333V55.3333H216.429V51.2702H219.053L221.979 55.3333H224.444L221.225 50.9214ZM216.426 49.4572V45.5423H219.474C221.022 45.5423 221.939 46.2205 221.939 47.4735V47.5027C221.939 48.6833 220.985 49.4553 219.486 49.4553L216.426 49.4572ZM201.111 45.5061V55.3333H210.056V53.504H203V50.3696H208.407V48.5414H203V45.5061H210.056V43.6667H201.111V45.5061ZM191.105 43.6667H189.056V55.3333H197.222V53.4706H191.105V43.6667ZM175.444 45.5711H179.242V55.3333H181.37V45.5711H185.167V43.6667H175.444V45.5711ZM169.55 43.6667H171.556V55.3333H169.844L163.45 47.0387V55.3333H161.444V43.6667H163.331L169.55 51.7369V43.6667ZM151.011 55.4169L147.018 46.056L143.031 55.4166H140.91L146.095 43.5831H148.021L153.202 55.4169H151.011ZM136.556 60H157.556V39H136.556V60Z" fill="#050038"/>
</svg>
